<svg width="92" height="27" viewBox="0 0 92 27" fill="none" xmlns="http://www.w3.org/2000/svg">
<path d="M0.762909 14.7981L9.96701 25.9884C10.2627 26.3465 10.6323 26.5255 11.002 26.5255C11.3716 26.5255 11.7413 26.3465 12.037 25.9884C12.6284 25.2722 12.6284 24.1532 12.037 23.437L5.34641 15.2905H26.9335C27.7468 15.2905 28.4121 14.4848 28.4121 13.5001C28.4121 12.5153 27.7468 11.7096 26.9335 11.7096H5.34641L12.037 3.56312C12.6284 2.84695 12.6284 1.72792 12.037 1.01174C11.4455 0.295566 10.5214 0.295566 9.93001 1.01174L0.725906 12.202C0.171406 12.9629 0.171509 14.1267 0.762909 14.7981Z" fill="#FF5722"/>
<path d="M5.52347 11.307H89.7623C90.9982 11.307 92 12.3088 92 13.5447C92 14.7805 90.9982 15.7823 89.7623 15.7823H5.52347C4.28764 15.7823 3.2858 14.7805 3.2858 13.5447C3.2858 12.3088 4.28764 11.307 5.52347 11.307Z" fill="#FF5722"/>
</svg>
