<svg width="53" height="27" viewBox="0 0 53 27" fill="none" xmlns="http://www.w3.org/2000/svg">
<path d="M52.5516 14.7981L43.3475 25.9884C43.0518 26.3465 42.6821 26.5255 42.3125 26.5255C41.9428 26.5255 41.5732 26.3465 41.2775 25.9884C40.6861 25.2722 40.6861 24.1532 41.2775 23.437L47.968 15.2905H26.3809C25.5677 15.2905 24.9023 14.4848 24.9023 13.5001C24.9023 12.5153 25.5677 11.7096 26.3809 11.7096H47.968L41.2775 3.56312C40.6861 2.84695 40.6861 1.72792 41.2775 1.01174C41.8689 0.295566 42.793 0.295566 43.3844 1.01174L52.5885 12.202C53.143 12.9629 53.143 14.1267 52.5516 14.7981Z" fill="#9A9A9A"/>
<path d="M48.3137 11.5194H2.3153C1.2103 11.5194 0.314514 12.4152 0.314514 13.5202V13.5202C0.314514 14.6252 1.2103 15.521 2.3153 15.521H48.3137C49.4187 15.521 50.3145 14.6252 50.3145 13.5202C50.3145 12.4152 49.4187 11.5194 48.3137 11.5194Z" fill="#9A9A9A"/>
</svg>
